<svg width="18" height="18" viewBox="0 0 18 18" fill="none" xmlns="http://www.w3.org/2000/svg">
<path d="M17.9996 1.46533C17.9996 0.6571 17.3272 0.00061298 16.5001 0.00061298L9.95537 0C9.12922 0 7.97846 0.467081 7.39462 1.03561L0.43806 7.82802C-0.145618 8.39718 -0.146422 9.32891 0.43806 9.89913L7.8619 17.1486C8.44481 17.7177 9.39998 17.7177 9.98382 17.1486L9.98602 17.1507L16.9394 10.3575C17.5232 9.78731 18 8.66323 18 7.8572L17.9996 1.46533ZM15.8791 9.32207L8.9225 16.1129L1.49866 8.86346L8.45522 2.07105C8.75687 1.77713 9.52763 1.46541 9.95437 1.46541L16.5011 1.46602V7.85671C16.5002 8.27432 16.1809 9.02735 15.8791 9.32205L15.8791 9.32207Z" fill="white"/>
</svg>
