<svg width="24" height="24" viewBox="0 0 24 24" fill="none" xmlns="http://www.w3.org/2000/svg">
<path d="M22.2428 14.1521C21.9352 14.0522 21.602 14.2193 21.5021 14.5267C19.8755 19.4492 14.5492 22.1294 9.62671 20.5017C4.70463 18.8705 2.024 13.5447 3.65172 8.62217C5.27882 3.70377 10.6047 1.02396 15.5271 2.65086C17.1083 3.17515 18.4771 4.08639 19.5635 5.30138L17.8159 5.01444C17.4915 4.9605 17.1919 5.17687 17.1418 5.4971C17.0877 5.81733 17.3038 6.12106 17.6243 6.17117L20.8497 6.70345C21.1869 6.75786 21.4697 6.53717 21.5235 6.22095L22.0562 2.99636C22.1103 2.67612 21.8938 2.37206 21.5736 2.32229C21.2492 2.26835 20.9496 2.48456 20.8995 2.80495L20.5877 4.68586C19.3436 3.24185 17.7204 2.13919 15.8939 1.536C10.3597 -0.295135 4.36789 2.71756 2.53696 8.25582C0.706275 13.79 3.70652 19.8363 9.2576 21.6172C14.9745 23.4479 20.7832 20.2897 22.6182 14.8966C22.722 14.584 22.5514 14.2513 22.2432 14.1513L22.2428 14.1521Z" fill="white"/>
<path d="M19.1016 8.17959C19.0926 8.14358 19.0798 8.10821 19.0641 8.0738C18.9969 7.93137 18.8684 7.82495 18.718 7.78525L13.0138 5.01838C12.8662 4.947 12.6838 4.947 12.5366 5.01838L6.75742 7.81951C6.57546 7.90593 6.45671 8.08677 6.44775 8.29115L6.44727 15.3457C6.44727 15.5552 6.56938 15.7483 6.75646 15.8377L12.5151 18.6287L12.5241 18.6372L12.5543 18.6473L12.5947 18.6742H12.626L12.6552 18.6886H12.6821L12.6995 18.694H12.7369H12.7353C12.7502 18.6951 12.7645 18.6962 12.7773 18.6962C12.7904 18.6962 12.8099 18.6962 12.8328 18.6932C12.8507 18.6927 12.8698 18.6897 12.8888 18.6849L12.9101 18.6794C12.914 18.6783 12.9172 18.6772 12.9213 18.6759H12.9296L12.965 18.6617C12.974 18.659 12.9879 18.6534 13.0047 18.6457C13.0137 18.6421 13.0226 18.6378 13.0316 18.6321L18.8157 15.8281C19.0026 15.7372 19.1237 15.544 19.1237 15.3374L19.1239 8.19024L19.1016 8.17959ZM12.2277 11.4634V17.2745L7.53876 15.0015L7.5386 9.18957L12.2277 11.4634ZM13.3195 11.4634L15.2995 10.5025V12.9661C15.2995 13.2673 15.5443 13.5117 15.8457 13.5117C16.1464 13.5117 16.3912 13.2676 16.3912 12.9661L16.3914 9.97119L18.0259 9.17851V14.9904L13.3197 17.2747L13.3195 11.4634ZM11.4056 6.77974L12.7739 6.11525L17.3092 8.31417L15.9409 8.97866L11.4056 6.77974ZM14.6897 9.58472L12.7739 10.5129L8.23856 8.31434L10.1547 7.38564L14.6897 9.58472Z" fill="white"/>
</svg>
