<svg width="14" height="21" viewBox="0 0 14 21" fill="none" xmlns="http://www.w3.org/2000/svg">
<path d="M7 0.25C3.28223 0.25 0.25 3.28223 0.25 7C0.25 8.05469 0.677735 9.26465 1.25781 10.5859C1.83789 11.9072 2.58496 13.3105 3.34375 14.6172C4.86133 17.2334 6.39062 19.4219 6.39062 19.4219L7 20.3125L7.60938 19.4219C7.60938 19.4219 9.13867 17.2334 10.6562 14.6172C11.415 13.3105 12.1621 11.9072 12.7422 10.5859C13.3223 9.26465 13.75 8.05469 13.75 7C13.75 3.28223 10.7178 0.25 7 0.25ZM7 1.75C9.90918 1.75 12.25 4.09082 12.25 7C12.25 7.60059 11.9277 8.7373 11.3828 9.97656C10.8379 11.2158 10.085 12.5898 9.34375 13.8672C8.16602 15.9004 7.43359 16.9756 7 17.6172C6.56641 16.9756 5.83398 15.9004 4.65625 13.8672C3.91504 12.5898 3.16211 11.2158 2.61719 9.97656C2.07227 8.7373 1.75 7.60059 1.75 7C1.75 4.09082 4.09082 1.75 7 1.75ZM7 5.5C6.1709 5.5 5.5 6.1709 5.5 7C5.5 7.8291 6.1709 8.5 7 8.5C7.8291 8.5 8.5 7.8291 8.5 7C8.5 6.1709 7.8291 5.5 7 5.5Z" fill="black"/>
</svg>
